<svg width="35" height="35" viewBox="0 0 35 35" fill="none" xmlns="http://www.w3.org/2000/svg">
<path d="M17.5 0C27.1673 0 35 7.83266 35 17.5C35 27.1673 27.1673 35 17.5 35C7.83266 35 0 27.1673 0 17.5C0 7.83266 7.83266 0 17.5 0ZM9.31452 20.6048H17.5V25.6079C17.5 26.3629 18.4173 26.744 18.9466 26.2077L27.0121 18.0998C27.3437 17.7681 27.3437 17.2389 27.0121 16.9073L18.9466 8.79234C18.4103 8.25605 17.5 8.6371 17.5 9.39214V14.3952H9.31452C8.84879 14.3952 8.46774 14.7762 8.46774 15.2419V19.7581C8.46774 20.2238 8.84879 20.6048 9.31452 20.6048Z" fill="black"/>
</svg>
