<svg width="45" height="36" viewBox="0 0 45 36" fill="none" xmlns="http://www.w3.org/2000/svg">
<path d="M15.75 18C20.7206 18 24.75 13.9706 24.75 9C24.75 4.02944 20.7206 0 15.75 0C10.7794 0 6.75 4.02944 6.75 9C6.75 13.9706 10.7794 18 15.75 18ZM22.5 22.5C22.5051 21.7484 22.7011 21.0105 23.0695 20.3555C22.732 20.3203 22.4016 20.25 22.05 20.25H20.8758C17.6232 21.75 13.8768 21.75 10.6242 20.25H9.45C4.2335 20.25 0.00232887 24.4793 0 29.6979V32.625C0 34.489 1.51104 36 3.375 36H23.1258C22.7214 35.3187 22.5054 34.5422 22.5 33.75L22.5 22.5ZM42.75 20.25H40.5V14.625C40.5 11.5184 37.9816 9 34.875 9C31.7684 9 29.25 11.5184 29.25 14.625V20.25H27C25.7574 20.25 24.75 21.2574 24.75 22.5V33.75C24.75 34.9926 25.7574 36 27 36H42.75C43.9926 36 45 34.9926 45 33.75V22.5C45 21.2574 43.9926 20.25 42.75 20.25ZM34.875 30.375C33.6324 30.375 32.625 29.3676 32.625 28.125C32.625 26.8824 33.6324 25.875 34.875 25.875C36.1176 25.875 37.125 26.8824 37.125 28.125C37.125 29.3676 36.1176 30.375 34.875 30.375ZM37.125 20.25H32.625V14.625C32.625 13.3824 33.6324 12.375 34.875 12.375C36.1176 12.375 37.125 13.3824 37.125 14.625V20.25Z" fill="black"/>
</svg>
