<svg width="55" height="36" viewBox="0 0 55 36" fill="none" xmlns="http://www.w3.org/2000/svg">
<path d="M55 1.78931V34.2101C55 34.5622 54.8207 34.9834 54.4628 35.473C54.1035 35.8258 53.6737 36 53.1741 36H1.82592C1.32408 36 0.894269 35.8258 0.537223 35.4736C0.177878 34.9833 0 34.5628 0 34.2108V1.78924C0 1.43859 0.177807 1.01742 0.53715 0.52636C0.894988 0.175711 1.3248 0 1.82592 0H53.1734C53.6737 0 54.1028 0.175642 54.4622 0.52636C54.8207 1.01812 55 1.43936 55 1.78931ZM51.3475 25.1583V10.8419C49.3416 10.8419 47.6229 10.1413 46.1909 8.73659C44.7574 7.3333 44.0424 5.61472 44.0424 3.57848H10.9569C10.9569 5.61465 10.2405 7.3333 8.80845 8.73659C7.37495 10.1413 5.65637 10.8419 3.65185 10.8419V25.1576C5.65551 25.1576 7.37488 25.8596 8.80845 27.2629C10.2405 28.6676 10.9569 30.3863 10.9569 32.421H44.0425C44.0425 30.3863 44.7574 28.6677 46.1909 27.2629C47.623 25.8604 49.3423 25.1583 51.3475 25.1583ZM36.6309 18.0001C36.6309 19.1233 36.4516 20.4575 36.0938 22.0005C35.664 23.4743 35.0901 24.7372 34.3751 25.7898C33.6587 26.913 32.6918 27.8605 31.475 28.6317C30.1863 29.3337 28.86 29.6843 27.5007 29.6843C26.1399 29.6843 24.8151 29.3337 23.5264 28.6317C22.3074 27.8598 21.3412 26.913 20.6262 25.7898C19.9098 24.7372 19.3375 23.4743 18.9075 22.0005C18.5483 20.4575 18.3704 19.1233 18.3704 18.0001C18.3704 16.8783 18.5482 15.5442 18.9075 13.9998C19.3374 12.5259 19.9097 11.2631 20.6262 10.2105C21.3412 9.08871 22.3081 8.14118 23.5264 7.36859C24.8143 6.66807 26.1391 6.31595 27.4999 6.31595C28.8593 6.31595 30.1855 6.66807 31.4743 7.36859C32.691 8.14189 33.658 9.08942 34.3744 10.2105C35.0893 11.2631 35.6632 12.526 36.0931 13.9998C36.4516 15.5442 36.6309 16.8783 36.6309 18.0001ZM22.0217 25.1583H32.9785V22.5267H29.3259V9.89513H26.1033L21.8063 13.7896L24.0621 16C24.9218 15.1576 25.4214 14.6313 25.5662 14.4211H25.6735V22.526H22.021L22.0217 25.1583Z" fill="black"/>
</svg>
