<svg width="23" height="36" viewBox="0 0 23 36" fill="none" xmlns="http://www.w3.org/2000/svg">
<path d="M19.125 0H3.375C1.51172 0 0 1.51172 0 3.375V32.625C0 34.4883 1.51172 36 3.375 36H19.125C20.9883 36 22.5 34.4883 22.5 32.625V3.375C22.5 1.51172 20.9883 0 19.125 0ZM11.25 33.75C10.0055 33.75 9 32.7445 9 31.5C9 30.2555 10.0055 29.25 11.25 29.25C12.4945 29.25 13.5 30.2555 13.5 31.5C13.5 32.7445 12.4945 33.75 11.25 33.75ZM19.125 26.1562C19.125 26.6203 18.7453 27 18.2812 27H4.21875C3.75469 27 3.375 26.6203 3.375 26.1562V4.21875C3.375 3.75469 3.75469 3.375 4.21875 3.375H18.2812C18.7453 3.375 19.125 3.75469 19.125 4.21875V26.1562Z" fill="black"/>
</svg>
