<svg width="45" height="36" viewBox="0 0 45 36" fill="none" xmlns="http://www.w3.org/2000/svg">
<path d="M15.75 18C20.7211 18 24.75 13.9711 24.75 8.99999C24.75 4.0289 20.7211 0 15.75 0C10.7789 0 6.75 4.0289 6.75 8.99999C6.75 13.9711 10.7789 18 15.75 18ZM22.05 20.25H20.8758C19.3148 20.9672 17.5781 21.375 15.75 21.375C13.9219 21.375 12.1922 20.9672 10.6242 20.25H9.44999C4.23281 20.25 0 24.4828 0 29.7V32.625C0 34.4883 1.51172 36 3.375 36H28.125C29.9883 36 31.5 34.4883 31.5 32.625V29.7C31.5 24.4828 27.2672 20.25 22.05 20.25ZM44.7609 11.2219L42.8062 9.24609C42.4828 8.91562 41.9554 8.91562 41.625 9.23906L34.2562 16.5516L31.057 13.3312C30.7336 13.0008 30.2062 13.0008 29.8758 13.3242L27.9 15.2859C27.5695 15.6094 27.5695 16.1367 27.8929 16.4672L33.6375 22.2539C33.9609 22.5844 34.4883 22.5844 34.8187 22.2609L44.7539 12.4031C45.0773 12.0726 45.0843 11.5453 44.7609 11.2219Z" fill="black"/>
</svg>
