<svg width="35" height="35" viewBox="0 0 35 35" fill="none" xmlns="http://www.w3.org/2000/svg">
<path d="M35 17.5C35 27.1673 27.1673 35 17.5 35C7.83266 35 0 27.1673 0 17.5C0 7.83266 7.83266 0 17.5 0C27.1673 0 35 7.83266 35 17.5ZM24.8669 15.4607L19.7581 20.7883V7.90323C19.7581 6.96472 19.003 6.20968 18.0645 6.20968H16.9355C15.997 6.20968 15.2419 6.96472 15.2419 7.90323V20.7883L10.1331 15.4607C9.47682 14.7762 8.38307 14.7621 7.7127 15.4325L6.94355 16.2087C6.28024 16.872 6.28024 17.9446 6.94355 18.6008L16.3004 27.9647C16.9637 28.628 18.0363 28.628 18.6925 27.9647L28.0565 18.6008C28.7198 17.9375 28.7198 16.8649 28.0565 16.2087L27.2873 15.4325C26.6169 14.7621 25.5232 14.7762 24.8669 15.4607Z" fill="black"/>
</svg>
